<?xml version="1.0" encoding="utf-8"?>
<!-- Generator: Adobe Illustrator 16.0.0, SVG Export Plug-In . SVG Version: 6.00 Build 0)  -->
<!DOCTYPE svg PUBLIC "-//W3C//DTD SVG 1.1//EN" "http://www.w3.org/Graphics/SVG/1.1/DTD/svg11.dtd">
<svg version="1.1" id="Layer_1" xmlns="http://www.w3.org/2000/svg" xmlns:xlink="http://www.w3.org/1999/xlink" x="0px" y="0px"
	 width="1404.25px" height="96.333px" viewBox="0 0 1404.25 96.333" enable-background="new 0 0 1404.25 96.333"
	 xml:space="preserve" preserveAspectRatio="none">
<g>
	<defs>
		<rect id="SVGID_1_" x="-0.118" y="0" width="1404.619" height="96.744"/>
	</defs>
	<use xlink:href="#SVGID_1_"  overflow="visible" fill="#FDB714"/>
	<clipPath id="SVGID_2_">
		<use xlink:href="#SVGID_1_"  overflow="visible"/>
	</clipPath>
	<g clip-path="url(#SVGID_2_)">

			<text transform="matrix(0.8086 -0.59 0.592 0.806 9.373 46.7646)" fill="#FEC40D" font-family="'OpenSans-Bold'" font-size="72.5039" letter-spacing="-2.997">a</text>

			<text transform="matrix(0.8086 -0.59 0.592 0.806 426.7476 136.7651)" fill="#FEC40D" font-family="'OpenSans-Bold'" font-size="72.5039" letter-spacing="-2.997">a</text>

			<text transform="matrix(0.7392 -0.6739 0.6761 0.7368 979.6563 145.0269)" fill="#FEC40D" font-family="'OpenSans-Bold'" font-size="72.5294" letter-spacing="-2.999">a</text>

			<text transform="matrix(0.8086 -0.59 0.592 0.806 390.6294 43.7656)" fill="#FEC40D" font-family="'OpenSans-Bold'" font-size="72.5039" letter-spacing="-2.997">j</text>

			<text transform="matrix(0.8086 -0.59 0.592 0.806 1048.7969 97.7671)" fill="#FEC40D" font-family="'OpenSans-Bold'" font-size="72.5039" letter-spacing="-2.997">j</text>
		<g>

				<text transform="matrix(1.0033 0 0 1 453.4307 126.8394)" fill="#FEC40D" font-family="'OpenSans-Bold'" font-size="72.4205" letter-spacing="-2.99">b</text>
		</g>
		<g>

				<text transform="matrix(1.0033 0 0 1 154.4473 144.8394)" fill="#FEC40D" font-family="'OpenSans-Bold'" font-size="72.4205" letter-spacing="-2.99">b</text>
		</g>
		<g>

				<text transform="matrix(1.0033 0 0 1 236.7183 95.8394)" fill="#FEC40D" font-family="'OpenSans-Bold'" font-size="72.4205" letter-spacing="-2.99">q</text>
		</g>
		<g>

				<text transform="matrix(1.0033 0 0 1 1106.5781 44.8389)" fill="#FEC40D" font-family="'OpenSans-Bold'" font-size="72.4205" letter-spacing="-2.99">q</text>
		</g>
		<g>

				<text transform="matrix(0.8584 -0.5159 0.5176 0.8556 1124.7422 116.9507)" fill="#FEC40D" font-family="'OpenSans-Bold'" font-size="72.4844" letter-spacing="-2.995">c</text>
		</g>
		<g>

				<text transform="matrix(0.8134 -0.5836 0.5855 0.8107 360.2925 84.2437)" fill="#FEC40D" font-family="'OpenSans-Bold'" font-size="72.5018" letter-spacing="-2.997">c</text>
		</g>
		<g>

				<text transform="matrix(0.8584 -0.5159 0.5176 0.8556 459.5532 32.9526)" fill="#FEC40D" font-family="'OpenSans-Bold'" font-size="72.4844" letter-spacing="-2.995">c</text>
		</g>
		<g>

				<text transform="matrix(0.8584 -0.5159 0.5176 0.8556 143.5127 96.9526)" fill="#FEC40D" font-family="'OpenSans-Bold'" font-size="72.4844" letter-spacing="-2.995">x</text>
		</g>
		<g>

				<text transform="matrix(0.8584 -0.5159 0.5176 0.8556 732.4512 89.9526)" fill="#FEC40D" font-family="'OpenSans-Bold'" font-size="72.4844" letter-spacing="-2.995">x</text>
		</g>
		<g>

				<text transform="matrix(0.8584 -0.5159 0.5176 0.8556 519.751 43.9512)" fill="#FEC40D" font-family="'OpenSans-Bold'" font-size="72.4844" letter-spacing="-2.995">x</text>
		</g>
		<g>

				<text transform="matrix(0.8584 -0.5159 0.5176 0.8556 473.5996 80.9507)" fill="#FEC40D" font-family="'OpenSans-Bold'" font-size="72.4844" letter-spacing="-2.995">v</text>
		</g>
		<g>

				<text transform="matrix(0.8584 -0.5159 0.5176 0.8556 612.0552 46.9526)" fill="#FEC40D" font-family="'OpenSans-Bold'" font-size="72.4844" letter-spacing="-2.995">v</text>
		</g>
		<g>

				<text transform="matrix(0.8584 -0.5159 0.5176 0.8556 303.0386 103.9526)" fill="#FEC40D" font-family="'OpenSans-Bold'" font-size="72.4844" letter-spacing="-2.995">w</text>
		</g>
		<g>

				<text transform="matrix(0.8584 -0.5159 0.5176 0.8556 853.8506 147.9517)" fill="#FEC40D" font-family="'OpenSans-Bold'" font-size="72.4844" letter-spacing="-2.995">w</text>
		</g>
		<g>

				<text transform="matrix(0.8584 -0.5159 0.5176 0.8556 51.209 49.9531)" fill="#FEC40D" font-family="'OpenSans-Bold'" font-size="72.4844" letter-spacing="-2.995">p</text>
		</g>
		<g>

				<text transform="matrix(0.8584 -0.5159 0.5176 0.8556 331.1309 141.9517)" fill="#FEC40D" font-family="'OpenSans-Bold'" font-size="72.4844" letter-spacing="-2.995">p</text>
		</g>
		<g>

				<text transform="matrix(0.8584 -0.5159 0.5176 0.8556 1165.8789 108.9507)" fill="#FEC40D" font-family="'OpenSans-Bold'" font-size="72.4844" letter-spacing="-2.995">p</text>
		</g>
		<g>

				<text transform="matrix(0.7184 -0.6957 0.698 0.7161 1012.0098 117.9751)" fill="#FEC40D" font-family="'OpenSans-Bold'" font-size="72.5368" letter-spacing="-3">p</text>
		</g>
		<g>

				<text transform="matrix(0.7562 -0.655 0.6572 0.7537 835.6563 89.8042)" fill="#FEC40D" font-family="'OpenSans-Bold'" font-size="72.523" letter-spacing="-2.999">y</text>
		</g>
		<g>

				<text transform="matrix(0.8528 -0.5251 0.5268 0.85 765.3193 137.8062)" fill="#FEC40D" font-family="'OpenSans-Bold'" font-size="72.4866" letter-spacing="-2.996">d</text>
		</g>
		<g>

				<text transform="matrix(0.8528 -0.5251 0.5268 0.85 1009.1201 49.8047)" fill="#FEC40D" font-family="'OpenSans-Bold'" font-size="72.4866" letter-spacing="-2.996">t</text>
		</g>
		<g>

				<text transform="matrix(0.8528 -0.5251 0.5268 0.85 908.791 94.8042)" fill="#FEC40D" font-family="'OpenSans-Bold'" font-size="72.4866" letter-spacing="-2.996">o</text>
		</g>
		<g>

				<text transform="matrix(0.8528 -0.5251 0.5268 0.85 378.0469 124.8071)" fill="#FEC40D" font-family="'OpenSans-Bold'" font-size="72.4866" letter-spacing="-2.996">o</text>
		</g>
		<g>

				<text transform="matrix(0.8528 -0.5251 0.5268 0.85 21.8765 145.8081)" fill="#FEC40D" font-family="'OpenSans-Bold'" font-size="72.4866" letter-spacing="-2.996">o</text>
		</g>
		<g>

				<text transform="matrix(0.8528 -0.5251 0.5268 0.85 190.4307 42.8091)" fill="#FEC40D" font-family="'OpenSans-Bold'" font-size="72.4866" letter-spacing="-2.996">o</text>
		</g>
		<g>

				<text transform="matrix(0.7285 0.6853 -0.6876 0.7261 202.6675 42.354)" fill="#FEC40D" font-family="'OpenSans-Bold'" font-size="72.5331" letter-spacing="-2.999">g</text>
		</g>
		<g>

				<text transform="matrix(0.5985 0.8 -0.8026 0.5965 696.4922 7.4429)" fill="#FEC40D" font-family="'OpenSans-Bold'" font-size="72.5743" letter-spacing="-3.003">g</text>
		</g>
		<g>

				<text transform="matrix(0.7285 0.6853 -0.6876 0.7261 955.1445 48.3525)" fill="#FEC40D" font-family="'OpenSans-Bold'" font-size="72.5331" letter-spacing="-2.999">n</text>
		</g>
		<g>

				<text transform="matrix(0.5621 0.8256 -0.8283 0.5602 44.9106 85.814)" fill="#FEC40D" font-family="'OpenSans-Bold'" font-size="72.5838" letter-spacing="-3.004">n</text>
		</g>
		<g>

				<text transform="matrix(0.5621 0.8256 -0.8283 0.5602 1069.2783 111.8091)" fill="#FEC40D" font-family="'OpenSans-Bold'" font-size="72.5838" letter-spacing="-3.004">n</text>
		</g>
		<g>

				<text transform="matrix(0.5621 0.8256 -0.8283 0.5602 318.8115 -0.1069)" fill="#FEC40D" font-family="'OpenSans-Bold'" font-size="72.5838" letter-spacing="-3.004">n</text>
		</g>
		<g>

				<text transform="matrix(0.7285 0.6853 -0.6876 0.7261 929.0586 88.3521)" fill="#FEC40D" font-family="'OpenSans-Bold'" font-size="72.5331" letter-spacing="-2.999">z</text>
		</g>
		<g>

				<text transform="matrix(1.0033 -0.0067 0.0068 1 560.481 135.8315)" fill="#FEC40D" font-family="'OpenSans-Bold'" font-size="72.4205" letter-spacing="-2.99">z</text>
		</g>
		<g>

				<text transform="matrix(0.7285 0.6853 -0.6876 0.7261 657.1641 118.353)" fill="#FEC40D" font-family="'OpenSans-Bold'" font-size="72.5331" letter-spacing="-2.999">h</text>
		</g>
		<g>

				<text transform="matrix(0.7285 0.6853 -0.6876 0.7261 68.2241 41.3535)" fill="#FEC40D" font-family="'OpenSans-Bold'" font-size="72.5331" letter-spacing="-2.999">h</text>
		</g>
		<g>

				<text transform="matrix(0.6196 0.784 -0.7865 0.6175 533.1187 41.9302)" fill="#FEC40D" font-family="'OpenSans-Bold'" font-size="72.5677" letter-spacing="-3.002">h</text>
		</g>
		<g>

				<text transform="matrix(0.6839 0.7293 -0.7317 0.6816 1055.5068 69.5796)" fill="#FEC40D" font-family="'OpenSans-Bold'" font-size="72.5482" letter-spacing="-3.001">h</text>
		</g>
		<g>

				<text transform="matrix(0.7285 0.6853 -0.6876 0.7261 780.5703 90.3521)" fill="#FEC40D" font-family="'OpenSans-Bold'" font-size="72.5331" letter-spacing="-2.999">u</text>
		</g>
		<g>

				<text transform="matrix(0.5751 0.8167 -0.8194 0.5732 1.7285 56.4375)" fill="#FEC40D" font-family="'OpenSans-Bold'" font-size="72.5808" letter-spacing="-3.003">u</text>
		</g>
		<g>

				<text transform="matrix(0.5751 0.8167 -0.8194 0.5732 787.3154 11.4404)" fill="#FEC40D" font-family="'OpenSans-Bold'" font-size="72.5808" letter-spacing="-3.003">u</text>
		</g>
		<g>

				<text transform="matrix(0.7285 0.6853 -0.6876 0.7261 1024.373 8.3521)" fill="#FEC40D" font-family="'OpenSans-Bold'" font-size="72.5331" letter-spacing="-2.999">u</text>
		</g>
		<g>

				<text transform="matrix(0.7285 0.6853 -0.6876 0.7261 1057.4824 42.3516)" fill="#FEC40D" font-family="'OpenSans-Bold'" font-size="72.5331" letter-spacing="-2.999">i</text>
		</g>
		<g>

				<text transform="matrix(0.6297 0.776 -0.7786 0.6276 123.4458 35.5752)" fill="#FEC40D" font-family="'OpenSans-Bold'" font-size="72.5653" letter-spacing="-3.002">i</text>
		</g>
		<g>

				<text transform="matrix(0.7285 0.6853 -0.6876 0.7261 513.6919 118.353)" fill="#FEC40D" font-family="'OpenSans-Bold'" font-size="72.5331" letter-spacing="-2.999">i</text>
		</g>
		<g>

				<text transform="matrix(0.7285 0.6853 -0.6876 0.7261 745.4556 22.353)" fill="#FEC40D" font-family="'OpenSans-Bold'" font-size="72.5331" letter-spacing="-2.999">i</text>
		</g>
		<g>

				<text transform="matrix(1.0033 0 0 1 918.9619 42.8389)" fill="#FEC40D" font-family="'OpenSans-Bold'" font-size="72.4205" letter-spacing="-2.99">e</text>
		</g>
		<g>

				<text transform="matrix(1.0033 0 0 1 272.8369 137.8394)" fill="#FEC40D" font-family="'OpenSans-Bold'" font-size="72.4205" letter-spacing="-2.99">e</text>
		</g>
		<g>

				<text transform="matrix(1.0033 0 0 1 1142.6973 10.8389)" fill="#FEC40D" font-family="'OpenSans-Bold'" font-size="72.4205" letter-spacing="-2.99">e</text>
		</g>
		<g>

				<text transform="matrix(1.0033 0 0 1 494.5659 91.8394)" fill="#FEC40D" font-family="'OpenSans-Bold'" font-size="72.4205" letter-spacing="-2.99">k</text>
		</g>
		<g>

				<text transform="matrix(1.0033 0 0 1 405.2725 88.8394)" fill="#FEC40D" font-family="'OpenSans-Bold'" font-size="72.4205" letter-spacing="-2.99">r</text>
		</g>
		<g>

				<text transform="matrix(1.0033 0 0 1 713.2852 130.8394)" fill="#FEC40D" font-family="'OpenSans-Bold'" font-size="72.4205" letter-spacing="-2.99">r</text>
		</g>
		<g>

				<text transform="matrix(1.0033 0 0 1 866.79 78.8394)" fill="#FEC40D" font-family="'OpenSans-Bold'" font-size="72.4205" letter-spacing="-2.99">r</text>
		</g>
		<g>

				<text transform="matrix(1.0033 0 0 1 106.2891 122.8394)" fill="#FEC40D" font-family="'OpenSans-Bold'" font-size="72.4205" letter-spacing="-2.99">r</text>
		</g>
		<g>

				<text transform="matrix(1.0033 0 0 1 776.4932 79.8394)" fill="#FEC40D" font-family="'OpenSans-Bold'" font-size="72.4205" letter-spacing="-2.99">l</text>
		</g>
		<g>

				<text transform="matrix(1.0033 0 0 1 134.3813 155.8394)" fill="#FEC40D" font-family="'OpenSans-Bold'" font-size="72.4205" letter-spacing="-2.99">l</text>
		</g>
		<g>

				<text transform="matrix(1.0033 0 0 1 583.8594 85.8394)" fill="#FEC40D" font-family="'OpenSans-Bold'" font-size="72.4205" letter-spacing="-2.99">l</text>
		</g>
		<g>

				<text transform="matrix(1.0033 0 0 1 253.7739 42.8389)" fill="#FEC40D" font-family="'OpenSans-Bold'" font-size="72.4205" letter-spacing="-2.99">m</text>
		</g>
		<g>

				<text transform="matrix(1.0033 0 0 1 842.7109 34.8389)" fill="#FEC40D" font-family="'OpenSans-Bold'" font-size="72.4205" letter-spacing="-2.99">m</text>
		</g>
		<g>

				<text transform="matrix(1.0033 0 0 1 195.5825 134.8394)" fill="#FEC40D" font-family="'OpenSans-Bold'" font-size="72.4205" letter-spacing="-2.99">m</text>
		</g>
		<g>

				<text transform="matrix(1.0033 0 0 1 597.9058 118.8394)" fill="#FEC40D" font-family="'OpenSans-Bold'" font-size="72.4205" letter-spacing="-2.99">m</text>
		</g>
		<g>

				<text transform="matrix(1.0033 0 0 1 896.8887 150.8394)" fill="#FEC40D" font-family="'OpenSans-Bold'" font-size="72.4205" letter-spacing="-2.99">m</text>
		</g>
		<g>

				<text transform="matrix(0.8639 0.5068 -0.5085 0.8611 621.8096 60.1084)" fill="#FEC40D" font-family="'OpenSans-Bold'" font-size="72.4821" letter-spacing="-2.995">f</text>
		</g>
		<g>

				<text transform="matrix(1.0023 -0.0448 0.0449 0.999 415.2749 37.5459)" fill="#FEC40D" font-family="'OpenSans-Bold'" font-size="72.4205" letter-spacing="-2.99">f</text>
		</g>
		<g>

				<text transform="matrix(0.8639 0.5068 -0.5085 0.8611 652.9106 64.1089)" fill="#FEC40D" font-family="'OpenSans-Bold'" font-size="72.4821" letter-spacing="-2.995">s</text>
		</g>
		<g>

				<text transform="matrix(0.8639 0.5068 -0.5085 0.8611 1149.5449 43.1079)" fill="#FEC40D" font-family="'OpenSans-Bold'" font-size="72.4821" letter-spacing="-2.995">s</text>
		</g>
		<g>

				<text transform="matrix(0.8639 0.5068 -0.5085 0.8611 120.1592 7.1089)" fill="#FEC40D" font-family="'OpenSans-Bold'" font-size="72.4821" letter-spacing="-2.995">s</text>
		</g>
	</g>
	<g clip-path="url(#SVGID_2_)">

			<text transform="matrix(0.8086 -0.59 0.592 0.806 1201.2393 46.7676)" fill="#FEC40D" font-family="'OpenSans-Bold'" font-size="72.5039" letter-spacing="-2.997">a</text>
		<g>

				<text transform="matrix(1.0033 0 0 1 1346.3076 144.8394)" fill="#FEC40D" font-family="'OpenSans-Bold'" font-size="72.4205" letter-spacing="-2.99">b</text>
		</g>
		<g>

				<text transform="matrix(0.8584 -0.5159 0.5176 0.8556 1335.377 96.9517)" fill="#FEC40D" font-family="'OpenSans-Bold'" font-size="72.4844" letter-spacing="-2.995">x</text>
		</g>
		<g>

				<text transform="matrix(0.8584 -0.5159 0.5176 0.8556 1243.0732 49.9512)" fill="#FEC40D" font-family="'OpenSans-Bold'" font-size="72.4844" letter-spacing="-2.995">p</text>
		</g>
		<g>

				<text transform="matrix(0.8528 -0.5251 0.5268 0.85 1213.7324 145.8022)" fill="#FEC40D" font-family="'OpenSans-Bold'" font-size="72.4866" letter-spacing="-2.996">o</text>
		</g>
		<g>

				<text transform="matrix(0.8528 -0.5251 0.5268 0.85 1382.2871 42.8032)" fill="#FEC40D" font-family="'OpenSans-Bold'" font-size="72.4866" letter-spacing="-2.996">o</text>
		</g>
		<g>

				<text transform="matrix(0.7285 0.6853 -0.6876 0.7261 1394.5332 42.3516)" fill="#FEC40D" font-family="'OpenSans-Bold'" font-size="72.5331" letter-spacing="-2.999">g</text>
		</g>
		<g>

				<text transform="matrix(0.5621 0.8256 -0.8283 0.5602 1236.7695 85.8081)" fill="#FEC40D" font-family="'OpenSans-Bold'" font-size="72.5838" letter-spacing="-3.004">n</text>
		</g>
		<g>

				<text transform="matrix(0.7285 0.6853 -0.6876 0.7261 1260.0898 41.3516)" fill="#FEC40D" font-family="'OpenSans-Bold'" font-size="72.5331" letter-spacing="-2.999">h</text>
		</g>
		<g>

				<text transform="matrix(0.5751 0.8167 -0.8194 0.5732 1193.5928 56.4414)" fill="#FEC40D" font-family="'OpenSans-Bold'" font-size="72.5808" letter-spacing="-3.003">u</text>
		</g>
		<g>

				<text transform="matrix(0.6297 0.776 -0.7786 0.6276 1315.3066 35.5776)" fill="#FEC40D" font-family="'OpenSans-Bold'" font-size="72.5653" letter-spacing="-3.002">i</text>
		</g>
		<g>

				<text transform="matrix(1.0033 0 0 1 1298.1494 122.8394)" fill="#FEC40D" font-family="'OpenSans-Bold'" font-size="72.4205" letter-spacing="-2.99">r</text>
		</g>
		<g>

				<text transform="matrix(1.0033 0 0 1 1326.2422 155.8394)" fill="#FEC40D" font-family="'OpenSans-Bold'" font-size="72.4205" letter-spacing="-2.99">l</text>
		</g>
		<g>

				<text transform="matrix(1.0033 0 0 1 1387.4434 134.8394)" fill="#FEC40D" font-family="'OpenSans-Bold'" font-size="72.4205" letter-spacing="-2.99">m</text>
		</g>
		<g>

				<text transform="matrix(0.8639 0.5068 -0.5085 0.8611 1312.0215 7.1079)" fill="#FEC40D" font-family="'OpenSans-Bold'" font-size="72.4821" letter-spacing="-2.995">s</text>
		</g>
	</g>
</g>
</svg>
